<svg width="32" height="32" viewBox="0 0 32 32" fill="none" xmlns="http://www.w3.org/2000/svg">
  <rect width="32" height="32" rx="8" fill="url(#gradient)"/>
  <path d="M8 24V8h6.4c1.6 0 2.93.47 4 1.4 1.07.93 1.6 2.13 1.6 3.6 0 .8-.2 1.53-.6 2.2-.4.67-.93 1.2-1.6 1.6.8.27 1.47.73 2 1.4.53.67.8 1.47.8 2.4 0 1.6-.53 2.87-1.6 3.8-1.07.93-2.4 1.4-4 1.4H8zm3.2-9.6h2.4c.53 0 .97-.17 1.3-.5.33-.33.5-.77.5-1.3s-.17-.97-.5-1.3c-.33-.33-.77-.5-1.3-.5h-2.4v3.6zm0 6.4h3.2c.67 0 1.23-.23 1.7-.7.47-.47.7-1.03.7-1.7s-.23-1.23-.7-1.7c-.47-.47-1.03-.7-1.7-.7h-3.2v4.8z" fill="white"/>
  <defs>
    <linearGradient id="gradient" x1="0" y1="0" x2="32" y2="32" gradientUnits="userSpaceOnUse">
      <stop stop-color="#8B5CF6"/>
      <stop offset="1" stop-color="#EC4899"/>
    </linearGradient>
  </defs>
</svg>